<?xml version="1.0" encoding="iso-8859-1"?>
<!-- Generator: Adobe Illustrator 16.0.0, SVG Export Plug-In . SVG Version: 6.00 Build 0)  -->
<!DOCTYPE svg PUBLIC "-//W3C//DTD SVG 1.1//EN" "http://www.w3.org/Graphics/SVG/1.1/DTD/svg11.dtd">
<svg version="1.1" id="Capa_1" xmlns="http://www.w3.org/2000/svg" xmlns:xlink="http://www.w3.org/1999/xlink" x="0px" y="0px"
	 width="32.832px" height="32.832px" viewBox="0 0 32.832 32.832" style="enable-background:new 0 0 32.832 32.832;"
	 xml:space="preserve">
<g>
	<path d="M19.193,5.558L24.5,29.555l7.732-1.711l-5.574-25.21l-7.465,1.651V3.781h-7.921V29.6h7.921V5.558z M30.941,27.021
		l-5.617,1.24l-0.521-2.363l5.615-1.243L30.941,27.021z M25.833,3.926l3.153,14.257l-5.616,1.242L20.216,5.167L25.833,3.926z
		 M18.109,28.52h-5.753v-2.424h5.753V28.52z M18.109,19.469h-5.753V4.865h5.753V19.469z M10.155,3.74H2.234v25.818h7.921V3.74z
		 M9.071,28.477H3.318v-2.422h5.753V28.477z M9.071,19.426H3.318V4.823h5.753V19.426z M32.832,30.387v1.289H0V1.156h1.289v29.23
		H32.832L32.832,30.387z M8.382,7.067H4.138V6.422h4.244V7.067z M17.355,7.389h-4.245V6.744h4.245V7.389z M25.751,6.295L21.6,7.179
		l-0.134-0.631l4.151-0.884L25.751,6.295z"/>
</g>
<g>
</g>
<g>
</g>
<g>
</g>
<g>
</g>
<g>
</g>
<g>
</g>
<g>
</g>
<g>
</g>
<g>
</g>
<g>
</g>
<g>
</g>
<g>
</g>
<g>
</g>
<g>
</g>
<g>
</g>
</svg>
